<svg xmlns="http://www.w3.org/2000/svg" viewBox="0 0 108 108" width="108" height="108"><g transform="translate(47.89 63.74) scale(1.1132)"><polygon points="-21.69,-1.25 15.67,-8.75 15.67,-15.31 -21.69,-7.81" fill="#fff" fill-opacity="0.62" stroke="#000" stroke-opacity="0" /><polygon points="-24.15,-5.33 -21.69,-1.25 -21.69,-7.81 -24.15,-11.90" fill="#fff" fill-opacity="0.62" stroke="#000" stroke-opacity="0" /><polygon points="-21.69,-7.81 15.67,-15.31 13.21,-19.40 -24.15,-11.90" fill="#fff" fill-opacity="1" stroke="#000" stroke-opacity="0" /><polygon points="-19.28,-4.56 -12.58,6.57 -12.58,-0.94 -19.28,-12.06" fill="#fff" fill-opacity="0.62" stroke="#000" stroke-opacity="0" /><polygon points="-12.58,6.57 19.28,0.18 19.28,-7.33 -12.58,-0.94" fill="#fff" fill-opacity="0.62" stroke="#000" stroke-opacity="0" /><polygon points="-12.58,-0.94 19.28,-7.33 12.58,-18.46 -19.28,-12.06" fill="#fff" fill-opacity="1" stroke="#000" stroke-opacity="0" /><polygon points="-13.21,12.83 24.15,5.33 24.15,-1.24 -13.21,6.26" fill="#fff" fill-opacity="0.62" stroke="#000" stroke-opacity="0" /><polygon points="-15.67,8.75 -13.21,12.83 -13.21,6.26 -15.67,2.18" fill="#fff" fill-opacity="0.62" stroke="#000" stroke-opacity="0" /><polygon points="-13.21,6.26 24.15,-1.24 21.69,-5.32 -15.67,2.18" fill="#fff" fill-opacity="1" stroke="#000" stroke-opacity="0" /><polygon points="2.55,-11.13 27.13,-16.06 27.13,-18.88 2.55,-13.94" fill="#fff" fill-opacity="0.62" stroke="#000" stroke-opacity="0" /><polygon points="1.18,-13.40 2.55,-11.13 2.55,-13.94 1.18,-16.21" fill="#fff" fill-opacity="0.62" stroke="#000" stroke-opacity="0" /><polygon points="2.55,-13.94 27.13,-18.88 25.77,-21.15 1.18,-16.21" fill="#fff" fill-opacity="1" stroke="#000" stroke-opacity="0" /><polygon points="-12.36,-9.65 -9.74,-5.31 -9.74,-11.87 -12.36,-16.22" fill="#fff" fill-opacity="0.62" stroke="#000" stroke-opacity="0" /><polygon points="4.95,-4.81 8.43,-8.95 8.43,-15.52 4.95,-11.38" fill="#fff" fill-opacity="0.62" stroke="#000" stroke-opacity="0" /><polygon points="-9.74,-5.31 -2.57,-3.30 -2.57,-9.87 -9.74,-11.87" fill="#fff" fill-opacity="0.62" stroke="#000" stroke-opacity="0" /><polygon points="-2.57,-3.30 4.95,-4.81 4.95,-11.38 -2.57,-9.87" fill="#fff" fill-opacity="0.62" stroke="#000" stroke-opacity="0" /><polygon points="8.43,-15.52 5.81,-19.87 -1.36,-21.87 -8.89,-20.36 -12.36,-16.22 -9.74,-11.87 -2.57,-9.87 4.95,-11.38" fill="#fff" fill-opacity="1" stroke="#000" stroke-opacity="0" /><polygon points="-7.86,-15.52 -6.97,-14.04 -6.97,-14.98 -7.86,-16.45" fill="#fff" fill-opacity="0.62" stroke="#000" stroke-opacity="0" /><polygon points="-1.97,-13.87 -0.79,-15.28 -0.79,-16.22 -1.97,-14.81" fill="#fff" fill-opacity="0.62" stroke="#000" stroke-opacity="0" /><polygon points="-6.97,-14.04 -4.53,-13.36 -4.53,-14.30 -6.97,-14.98" fill="#fff" fill-opacity="0.62" stroke="#000" stroke-opacity="0" /><polygon points="-4.53,-13.36 -1.97,-13.87 -1.97,-14.81 -4.53,-14.30" fill="#fff" fill-opacity="0.62" stroke="#000" stroke-opacity="0" /><polygon points="-0.79,-16.22 -1.68,-17.69 -4.12,-18.38 -6.68,-17.86 -7.86,-16.45 -6.97,-14.98 -4.53,-14.30 -1.97,-14.81" fill="#fff" fill-opacity="1" stroke="#000" stroke-opacity="0" /><polygon points="33.92,-20.13 30.03,-18.09 32.03,-14.74 27.88,-16.42 25.25,-13.35 24.99,-17.06 20.36,-17.36 24.25,-19.39 22.25,-22.75 26.40,-21.07 29.03,-24.13 29.28,-20.42" fill="#fff" /></g></svg>